<?xml version="1.0" encoding="UTF-8" standalone="no"?>
<svg
   xmlns:dc="http://purl.org/dc/elements/1.1/"
   xmlns:cc="http://creativecommons.org/ns#"
   xmlns:rdf="http://www.w3.org/1999/02/22-rdf-syntax-ns#"
   xmlns:svg="http://www.w3.org/2000/svg"
   xmlns="http://www.w3.org/2000/svg"
   viewBox="0 0 128 128"
   style="display:inline;enable-background:new"
   version="1.0"
   id="svg11300"
   height="128"
   width="128">
  <title
     id="title4162">Ubuntu One Icon</title>
  <defs
     id="defs3" />
  <metadata
     id="metadata4">
    <rdf:RDF>
      <cc:Work
         rdf:about="">
        <dc:format>image/svg+xml</dc:format>
        <dc:type
           rdf:resource="http://purl.org/dc/dcmitype/StillImage" />
        <dc:creator>
          <cc:Agent>
            <dc:title>Andrea Azzarone</dc:title>
          </cc:Agent>
        </dc:creator>
        <dc:source />
        <cc:license
           rdf:resource="http://creativecommons.org/licenses/by-sa/4.0/" />
        <dc:title>Ubuntu One Icon</dc:title>
        <dc:subject>
          <rdf:Bag />
        </dc:subject>
        <dc:date />
        <dc:rights>
          <cc:Agent>
            <dc:title />
          </cc:Agent>
        </dc:rights>
        <dc:publisher>
          <cc:Agent>
            <dc:title />
          </cc:Agent>
        </dc:publisher>
        <dc:identifier />
        <dc:relation />
        <dc:language />
        <dc:coverage />
        <dc:description />
        <dc:contributor>
          <cc:Agent>
            <dc:title />
          </cc:Agent>
        </dc:contributor>
      </cc:Work>
      <cc:License
         rdf:about="http://creativecommons.org/licenses/by-sa/4.0/">
        <cc:permits
           rdf:resource="http://creativecommons.org/ns#Reproduction" />
        <cc:permits
           rdf:resource="http://creativecommons.org/ns#Distribution" />
        <cc:requires
           rdf:resource="http://creativecommons.org/ns#Notice" />
        <cc:requires
           rdf:resource="http://creativecommons.org/ns#Attribution" />
        <cc:permits
           rdf:resource="http://creativecommons.org/ns#DerivativeWorks" />
        <cc:requires
           rdf:resource="http://creativecommons.org/ns#ShareAlike" />
      </cc:License>
    </rdf:RDF>
  </metadata>
  <g
     transform="translate(0,-172)"
     style="display:inline"
     id="layer1">
    <g
       style="display:inline"
       id="layer9">
      <g
         id="g3900"
         style="display:inline;enable-background:new"
         transform="translate(-3e-5,-159.99988)">
        <g
           transform="translate(368.00003,159.99976)"
           id="g1747"
           style="display:inline;enable-background:new">
          <rect
             style="display:inline;opacity:1;vector-effect:none;fill:#E95420;fill-opacity:1;stroke:none;stroke-width:0.24999999;stroke-linecap:butt;stroke-linejoin:miter;stroke-miterlimit:4;stroke-dasharray:none;stroke-dashoffset:0;stroke-opacity:1;marker:none;marker-start:none;marker-mid:none;marker-end:none;paint-order:normal;enable-background:new"
             id="rect1745"
             width="104"
             height="104.00024"
             x="-356"
             y="184"
             rx="7.9999986"
             ry="8" />
        </g>
        <path
           style="fill:#ffffff;fill-opacity:1;stroke-width:0.33180749"
           d="m 46.310338,361.96552 c -3.251491,0.0493 -6.606439,0.0979 -7.455439,0.10827 l -1.543638,0.0184 -0.002,4.45838 c -0.0052,11.65145 0.279497,41.15819 0.407257,42.20373 0.143526,1.17358 0.180967,1.3707 0.647672,3.4192 1.294356,5.68091 5.519652,11.60519 10.048093,14.08914 3.61014,1.98012 6.489188,2.99214 10.327918,3.63039 3.739544,0.62149 14.27011,0.0721 20.873269,-1.08912 0.614168,-0.10827 1.67829,-0.29197 2.364717,-0.40896 2.88726,-0.49109 4.901867,-0.891 7.159848,-1.42132 0.289024,-0.0677 0.75671,-0.16157 1.039165,-0.20816 l 0.513669,-0.0848 -0.09361,-32.25719 c -0.07189,-24.81606 -0.130059,-32.28066 -0.25092,-32.35977 -0.08639,-0.0563 -4.029547,-0.0882 -8.762273,-0.0707 l -8.60496,0.0322 -0.03319,25.17575 -0.03319,25.17574 -8.177665,-0.0345 -8.177667,-0.0345 -0.06569,-16.62672 -0.06569,-16.62673 -3.493875,-0.0671 -3.494203,-0.0671 1.772227,-3.68738 c 0.97479,-2.02806 2.798253,-5.78717 4.05254,-8.35325 1.253959,-2.56608 2.279985,-4.75337 2.279985,-4.86064 0,-0.21755 -0.31858,-0.21889 -11.232424,-0.0533"
           id="path4060-7" />
      </g>
    </g>
  </g>
</svg>
